<?xml version="1.0" standalone="no"?>
<!DOCTYPE svg PUBLIC "-//W3C//DTD SVG 20010904//EN"
 "http://www.w3.org/TR/2001/REC-SVG-20010904/DTD/svg10.dtd">
<svg version="1.0" xmlns="http://www.w3.org/2000/svg"
 width="385.000000pt" height="385.000000pt" viewBox="0 0 385.000000 385.000000"
 preserveAspectRatio="xMidYMid meet">
<metadata>
Created by potrace 1.11, written by Peter Selinger 2001-2013
</metadata>
<g transform="translate(0.000000,385.000000) scale(0.100000,-0.100000)"
fill="#000000" stroke="none">
<path d="M310 2489 c-13 -6 -31 -16 -40 -23 -8 -7 -36 -20 -62 -30 -93 -34
-158 -101 -172 -178 -5 -29 23 -96 48 -117 9 -8 18 -12 19 -10 2 2 13 27 26
56 36 78 95 131 93 83 0 -3 -3 -93 -7 -200 -4 -107 -9 -198 -12 -202 -2 -5
-17 -8 -34 -8 -26 0 -29 -3 -29 -32 0 -42 11 -59 38 -61 21 -1 21 -5 20 -157
-1 -104 3 -168 11 -193 13 -37 15 -39 48 -32 54 10 104 37 98 53 -3 7 -8 59
-11 115 -13 228 -19 205 59 223 46 11 48 11 61 -15 8 -14 30 -75 51 -136 46
-136 74 -192 116 -233 52 -50 146 -55 191 -10 l21 21 -36 18 c-70 36 -137 142
-201 316 l-37 102 53 54 c69 70 71 73 97 142 29 78 28 185 -4 254 -49 105
-149 168 -281 178 -50 4 -78 11 -81 20 -6 15 -9 15 -43 2z m144 -150 c52 -14
120 -84 133 -136 14 -57 7 -147 -17 -192 -35 -70 -110 -120 -207 -137 -17 -3
-23 1 -24 13 -3 47 6 452 10 461 3 6 70 1 105 -9z"/>
<path d="M3169 2276 c-51 -25 -64 -101 -25 -141 20 -20 29 -22 60 -15 20 4 43
14 52 21 20 17 44 63 44 87 0 44 -80 74 -131 48z m75 -68 c-15 -27 -38 -48
-51 -48 -19 0 -16 30 5 46 22 17 56 18 46 2z"/>
<path d="M998 2076 c-71 -25 -140 -104 -174 -196 -38 -107 -20 -265 37 -326
72 -76 208 -77 280 -1 30 31 59 92 59 122 0 31 -17 33 -29 3 -12 -30 -59 -74
-94 -87 -84 -32 -142 7 -161 106 -4 19 -2 20 30 10 104 -32 244 103 245 238 2
114 -81 171 -193 131z m90 -63 c15 -29 7 -107 -14 -144 -20 -35 -103 -88 -138
-89 -15 0 -17 5 -12 35 12 60 47 126 92 171 48 48 59 52 72 27z"/>
<path d="M1452 2071 c-56 -19 -113 -60 -146 -105 -16 -21 -21 -42 -21 -91 0
-60 2 -66 34 -94 37 -33 90 -53 189 -72 92 -17 116 -49 67 -87 -30 -24 -92
-36 -133 -27 -39 8 -72 40 -72 70 0 48 -50 17 -82 -50 -26 -55 1 -96 76 -116
77 -21 152 -13 216 23 49 27 72 63 78 119 4 42 1 51 -23 73 -15 14 -53 35 -84
46 -120 46 -161 84 -161 153 0 64 83 130 140 112 28 -9 36 -50 17 -90 -15 -32
-15 -33 6 -39 38 -10 74 -6 87 9 7 8 15 35 18 60 6 55 -15 90 -63 111 -45 18
-79 17 -143 -5z"/>
<path d="M1904 2065 c-51 -25 -83 -55 -117 -108 -62 -97 -77 -266 -32 -357 55
-108 194 -138 294 -63 33 25 81 111 81 146 0 28 -24 19 -44 -17 -36 -67 -115
-101 -175 -76 -36 15 -57 45 -67 95 -6 36 -6 37 16 25 85 -46 242 82 256 208
16 137 -88 209 -212 147z m118 -107 c-2 -90 -40 -137 -140 -172 l-42 -15 6 37
c6 38 52 131 82 167 9 11 28 28 42 38 34 24 53 3 52 -55z"/>
<path d="M2649 2052 c-35 -17 -35 -18 -22 -49 12 -31 18 -64 29 -163 11 -107
15 -131 35 -191 45 -137 72 -167 137 -150 28 8 44 22 68 58 73 112 127 271
141 414 8 86 -16 106 -96 78 -25 -9 -30 -15 -24 -28 26 -55 -3 -243 -58 -371
-33 -78 -45 -81 -64 -18 -16 56 -20 89 -30 243 -8 119 -14 176 -21 186 -8 14
-55 9 -95 -9z"/>
<path d="M2440 2035 c-19 -14 -46 -43 -60 -64 -38 -58 -51 -77 -47 -66 11 26
17 134 7 140 -14 8 -88 -15 -102 -33 -13 -15 -16 -64 -19 -334 -3 -158 3 -178
47 -178 13 0 34 5 48 12 21 9 24 16 19 37 -12 46 -6 175 10 231 23 77 72 150
103 150 28 0 44 -26 44 -74 0 -20 5 -36 11 -36 18 0 77 65 85 93 16 68 -29
147 -85 147 -15 0 -43 -11 -61 -25z"/>
<path d="M3585 2047 c-43 -14 -107 -60 -145 -103 -127 -145 -112 -395 25 -433
63 -17 136 17 176 83 17 28 20 27 19 -9 0 -3 6 -18 14 -34 23 -44 86 -60 121
-31 13 11 12 16 -6 39 -20 25 -21 33 -14 186 15 340 17 322 -40 307 -39 -11
-52 -39 -60 -132 -11 -131 -15 -154 -41 -207 -25 -52 -74 -103 -99 -103 -7 0
-23 8 -35 18 -31 25 -37 93 -15 167 26 90 63 139 134 176 43 22 47 29 31 58
-13 25 -30 30 -65 18z"/>
<path d="M3164 2032 l-39 -14 1 -234 c1 -129 5 -246 8 -259 5 -20 13 -25 39
-25 52 0 62 13 63 77 1 57 12 220 19 278 3 17 7 67 10 113 l6 83 -34 -3 c-19
-1 -52 -8 -73 -16z"/>
</g>
</svg>
